<?xml version="1.0" encoding="UTF-8" standalone="no"?>
<!DOCTYPE svg PUBLIC "-//W3C//DTD SVG 1.1//EN" "http://www.w3.org/Graphics/SVG/1.1/DTD/svg11.dtd">
<svg width="100%" height="100%" viewBox="0 0 98 18" version="1.1" xmlns="http://www.w3.org/2000/svg" xmlns:xlink="http://www.w3.org/1999/xlink" xml:space="preserve" xmlns:serif="http://www.serif.com/" style="fill-rule:evenodd;clip-rule:evenodd;stroke-linejoin:round;stroke-miterlimit:1.41421;">
    <g transform="matrix(1,0,0,1,-43.7921,-244.302)">
        <g transform="matrix(2.05,0,0,1,0,0)">
            <g transform="matrix(0.167841,0,0,0.344073,20.0972,240.843)">
                <g>
                    <g>
                        <path d="M46.453,46.641L58.416,46.645C62.05,46.646 64.999,49.597 64.998,53.231C64.997,56.865 62.045,59.815 58.411,59.814L43.169,59.809L43.795,59.327C44.578,58.597 45.22,57.717 45.674,56.747C46.008,56.032 46.239,55.27 46.358,54.49C46.417,54.105 46.446,53.718 46.453,53.329L46.453,46.641ZM58.411,50.368C59.991,50.368 61.274,51.651 61.274,53.231C61.274,54.812 59.991,56.095 58.411,56.095C56.831,56.095 55.548,54.812 55.548,53.231C55.548,51.651 56.831,50.368 58.411,50.368Z" style="fill:white;"/>
                        <path d="M29.774,17.467L29.774,41.42L19.62,56.848C17.622,59.883 13.536,60.726 10.5,58.728C7.464,56.73 6.622,52.643 8.62,49.608L29.774,17.467ZM14.388,50.368C15.968,50.368 17.251,51.651 17.251,53.231C17.251,54.812 15.968,56.095 14.388,56.095C12.807,56.095 11.524,54.812 11.524,53.231C11.524,51.651 12.807,50.368 14.388,50.368Z" style="fill:white;"/>
                        <path d="M38.114,10.054C41.748,10.054 44.698,13.004 44.698,16.638L44.698,53.222C44.698,56.856 41.748,59.806 38.114,59.806C34.48,59.806 31.529,56.856 31.529,53.222L31.529,16.638C31.529,13.004 34.48,10.054 38.114,10.054ZM38.114,50.368C39.694,50.368 40.977,51.651 40.977,53.231C40.977,54.812 39.694,56.095 38.114,56.095C36.533,56.095 35.25,54.812 35.25,53.231C35.25,51.651 36.533,50.368 38.114,50.368ZM38.114,13.775C39.694,13.775 40.977,15.058 40.977,16.638C40.977,18.218 39.694,19.501 38.114,19.501C36.533,19.501 35.25,18.218 35.25,16.638C35.25,15.058 36.533,13.775 38.114,13.775Z" style="fill:white;"/>
                    </g>
                </g>
            </g>
        </g>
        <g transform="matrix(2.05,0,0,1,0,0)">
            <g>
                <g transform="matrix(0.36605,0,0,0.752469,-4.52612,115.627)">
                    <path d="M108.959,193.453L112.956,193.453L110.036,175.134L104.373,175.134L101.478,193.453L105.091,193.453L105.934,186.97L108.104,186.955L108.959,193.453ZM107.012,178.644L108.105,186.954L105.936,186.971L107.012,178.644Z" style="fill:rgb(0,173,239);fill-rule:nonzero;"/>
                </g>
                <g transform="matrix(0.36605,0,0,0.752469,-4.52612,115.627)">
                    <path d="M116.646,193.453L120.591,193.453L120.591,185.818L121.308,185.818L123.332,193.453L127.432,193.453L125.023,185.203C126.228,184.614 126.919,183.64 126.919,181.565L126.919,179.695C126.919,176.646 125.485,175.134 121.642,175.134L116.646,175.134L116.646,193.453ZM120.591,183.282L120.591,178.157L121.513,178.157C122.615,178.157 123.076,178.593 123.076,179.823L123.076,181.514C123.076,182.82 122.589,183.282 121.513,183.282L120.591,183.282Z" style="fill:rgb(0,173,239);fill-rule:nonzero;"/>
                </g>
                <g transform="matrix(0.36605,0,0,0.752469,-4.52612,115.627)">
                    <path d="M133.35,193.453L137.27,193.453L137.296,178.234L140.216,178.234L140.216,175.134L130.404,175.134L130.404,178.234L133.35,178.234L133.35,193.453Z" style="fill:rgb(0,173,239);fill-rule:nonzero;"/>
                </g>
                <g transform="matrix(0.36605,0,0,0.752469,-4.52612,115.627)">
                    <path d="M144.341,193.453L151.72,193.453L151.72,191.275L147.057,191.275L147.057,175.134L144.341,175.134L144.341,193.453Z" style="fill:white;fill-rule:nonzero;"/>
                </g>
                <g transform="matrix(0.36605,0,0,0.752469,-4.52612,115.627)">
                    <rect x="156.255" y="175.134" width="2.741" height="18.319" style="fill:white;fill-rule:nonzero;"/>
                </g>
                <g transform="matrix(0.36605,0,0,0.752469,-4.52612,115.627)">
                    <path d="M164.018,193.453L166.426,193.453L166.426,180.079L170.833,193.453L173.523,193.453L173.523,175.134L171.14,175.134L171.14,187.201L167.118,175.134L164.018,175.134L164.018,193.453Z" style="fill:white;fill-rule:nonzero;"/>
                </g>
                <g transform="matrix(0.36605,0,0,0.752469,-4.52612,115.627)">
                    <path d="M188.152,193.453L183.668,183.64L187.947,175.134L185.18,175.134L181.158,183.41L181.158,175.134L178.442,175.134L178.442,193.453L181.158,193.453L181.158,184.383L185.257,193.453L188.152,193.453Z" style="fill:white;fill-rule:nonzero;"/>
                </g>
                <g transform="matrix(0.36605,0,0,0.752469,-4.52612,115.627)">
                    <path d="M195.889,193.709C198.605,193.709 200.322,192.197 200.322,189.02L200.322,188.662C200.322,185.459 198.836,184.332 196.53,182.718C194.736,181.411 194.096,180.745 194.096,179.105L194.096,179.029C194.096,177.696 194.685,177.056 195.761,177.056C196.812,177.056 197.503,177.568 197.503,179.208L197.503,179.848L200.065,179.848L200.065,179.234C200.04,176.287 198.477,174.904 195.761,174.904C193.122,174.904 191.508,176.467 191.508,179.208L191.508,179.285C191.508,182.026 192.712,183.333 194.916,184.896C196.786,186.253 197.683,186.945 197.683,188.918L197.683,189.2C197.683,190.788 197.042,191.557 195.889,191.557C194.506,191.557 193.891,190.814 193.891,188.944L193.891,188.303L191.278,188.303L191.278,188.892C191.303,192.146 192.994,193.709 195.889,193.709Z" style="fill:white;fill-rule:nonzero;"/>
                </g>
            </g>
        </g>
    </g>
</svg>
